<svg xmlns="http://www.w3.org/2000/svg" xmlns:xlink="http://www.w3.org/1999/xlink" width="1534" zoomAndPan="magnify" viewBox="0 0 1150.5 425.999984" height="568" preserveAspectRatio="xMidYMid meet" version="1.0"><defs><g/><clipPath id="a72aab91a0"><path d="M 0 49.683594 L 326.414062 49.683594 L 326.414062 376.097656 L 0 376.097656 Z M 0 49.683594 " clip-rule="nonzero"/></clipPath><clipPath id="151988e85f"><path d="M 74.96875 49.683594 L 251.445312 49.683594 C 292.847656 49.683594 326.414062 83.25 326.414062 124.652344 L 326.414062 301.128906 C 326.414062 342.535156 292.847656 376.097656 251.445312 376.097656 L 74.96875 376.097656 C 33.5625 376.097656 0 342.535156 0 301.128906 L 0 124.652344 C 0 83.25 33.5625 49.683594 74.96875 49.683594 Z M 74.96875 49.683594 " clip-rule="nonzero"/></clipPath><clipPath id="9961e6c1a0"><path d="M 0 0.683594 L 326.414062 0.683594 L 326.414062 327.097656 L 0 327.097656 Z M 0 0.683594 " clip-rule="nonzero"/></clipPath><clipPath id="5ea8b7b86f"><path d="M 74.96875 0.683594 L 251.445312 0.683594 C 292.847656 0.683594 326.414062 34.25 326.414062 75.652344 L 326.414062 252.128906 C 326.414062 293.535156 292.847656 327.097656 251.445312 327.097656 L 74.96875 327.097656 C 33.5625 327.097656 0 293.535156 0 252.128906 L 0 75.652344 C 0 34.25 33.5625 0.683594 74.96875 0.683594 Z M 74.96875 0.683594 " clip-rule="nonzero"/></clipPath><linearGradient x1="0.000000000000029869" gradientTransform="matrix(1.275049, 0, 0, 1.275049, -0.000000000000085228, 0.685139)" y1="0.000000000000029869" x2="255.999997" gradientUnits="userSpaceOnUse" y2="255.999997" id="ce87de8cba"><stop stop-opacity="1" stop-color="rgb(100%, 38.038635%, 0%)" offset="0"/><stop stop-opacity="1" stop-color="rgb(99.928284%, 37.890625%, 0%)" offset="0.0078125"/><stop stop-opacity="1" stop-color="rgb(99.787903%, 37.593079%, 0%)" offset="0.015625"/><stop stop-opacity="1" stop-color="rgb(99.645996%, 37.295532%, 0%)" offset="0.0234375"/><stop stop-opacity="1" stop-color="rgb(99.505615%, 36.997986%, 0%)" offset="0.03125"/><stop stop-opacity="1" stop-color="rgb(99.365234%, 36.701965%, 0%)" offset="0.0390625"/><stop stop-opacity="1" stop-color="rgb(99.223328%, 36.404419%, 0%)" offset="0.046875"/><stop stop-opacity="1" stop-color="rgb(99.082947%, 36.106873%, 0%)" offset="0.0546875"/><stop stop-opacity="1" stop-color="rgb(98.942566%, 35.809326%, 0%)" offset="0.0625"/><stop stop-opacity="1" stop-color="rgb(98.800659%, 35.513306%, 0%)" offset="0.0703125"/><stop stop-opacity="1" stop-color="rgb(98.660278%, 35.215759%, 0%)" offset="0.078125"/><stop stop-opacity="1" stop-color="rgb(98.518372%, 34.918213%, 0%)" offset="0.0859375"/><stop stop-opacity="1" stop-color="rgb(98.377991%, 34.620667%, 0%)" offset="0.09375"/><stop stop-opacity="1" stop-color="rgb(98.23761%, 34.32312%, 0%)" offset="0.101562"/><stop stop-opacity="1" stop-color="rgb(98.095703%, 34.0271%, 0%)" offset="0.109375"/><stop stop-opacity="1" stop-color="rgb(97.955322%, 33.729553%, 0%)" offset="0.117188"/><stop stop-opacity="1" stop-color="rgb(97.814941%, 33.432007%, 0%)" offset="0.125"/><stop stop-opacity="1" stop-color="rgb(97.673035%, 33.13446%, 0%)" offset="0.132812"/><stop stop-opacity="1" stop-color="rgb(97.532654%, 32.83844%, 0%)" offset="0.140625"/><stop stop-opacity="1" stop-color="rgb(97.392273%, 32.540894%, 0%)" offset="0.148438"/><stop stop-opacity="1" stop-color="rgb(97.250366%, 32.243347%, 0%)" offset="0.15625"/><stop stop-opacity="1" stop-color="rgb(97.109985%, 31.945801%, 0%)" offset="0.164062"/><stop stop-opacity="1" stop-color="rgb(96.968079%, 31.64978%, 0%)" offset="0.171875"/><stop stop-opacity="1" stop-color="rgb(96.827698%, 31.352234%, 0%)" offset="0.179688"/><stop stop-opacity="1" stop-color="rgb(96.687317%, 31.054688%, 0%)" offset="0.1875"/><stop stop-opacity="1" stop-color="rgb(96.54541%, 30.757141%, 0%)" offset="0.195312"/><stop stop-opacity="1" stop-color="rgb(96.405029%, 30.461121%, 0%)" offset="0.203125"/><stop stop-opacity="1" stop-color="rgb(96.264648%, 30.163574%, 0%)" offset="0.210938"/><stop stop-opacity="1" stop-color="rgb(96.122742%, 29.866028%, 0%)" offset="0.21875"/><stop stop-opacity="1" stop-color="rgb(95.982361%, 29.568481%, 0%)" offset="0.226563"/><stop stop-opacity="1" stop-color="rgb(95.84198%, 29.270935%, 0%)" offset="0.234375"/><stop stop-opacity="1" stop-color="rgb(95.700073%, 28.974915%, 0%)" offset="0.242188"/><stop stop-opacity="1" stop-color="rgb(95.559692%, 28.677368%, 0%)" offset="0.25"/><stop stop-opacity="1" stop-color="rgb(95.417786%, 28.379822%, 0%)" offset="0.257812"/><stop stop-opacity="1" stop-color="rgb(95.277405%, 28.082275%, 0%)" offset="0.265625"/><stop stop-opacity="1" stop-color="rgb(95.137024%, 27.786255%, 0%)" offset="0.273438"/><stop stop-opacity="1" stop-color="rgb(94.995117%, 27.488708%, 0%)" offset="0.28125"/><stop stop-opacity="1" stop-color="rgb(94.854736%, 27.191162%, 0%)" offset="0.289062"/><stop stop-opacity="1" stop-color="rgb(94.714355%, 26.893616%, 0%)" offset="0.296875"/><stop stop-opacity="1" stop-color="rgb(94.572449%, 26.597595%, 0%)" offset="0.304688"/><stop stop-opacity="1" stop-color="rgb(94.432068%, 26.300049%, 0%)" offset="0.3125"/><stop stop-opacity="1" stop-color="rgb(94.291687%, 26.002502%, 0%)" offset="0.320312"/><stop stop-opacity="1" stop-color="rgb(94.14978%, 25.704956%, 0%)" offset="0.328125"/><stop stop-opacity="1" stop-color="rgb(94.009399%, 25.408936%, 0%)" offset="0.335938"/><stop stop-opacity="1" stop-color="rgb(93.867493%, 25.111389%, 0%)" offset="0.34375"/><stop stop-opacity="1" stop-color="rgb(93.727112%, 24.813843%, 0%)" offset="0.351562"/><stop stop-opacity="1" stop-color="rgb(93.586731%, 24.516296%, 0%)" offset="0.359375"/><stop stop-opacity="1" stop-color="rgb(93.444824%, 24.21875%, 0%)" offset="0.367188"/><stop stop-opacity="1" stop-color="rgb(93.304443%, 23.922729%, 0%)" offset="0.375"/><stop stop-opacity="1" stop-color="rgb(93.164062%, 23.625183%, 0%)" offset="0.382812"/><stop stop-opacity="1" stop-color="rgb(93.022156%, 23.327637%, 0%)" offset="0.390625"/><stop stop-opacity="1" stop-color="rgb(92.881775%, 23.03009%, 0%)" offset="0.398438"/><stop stop-opacity="1" stop-color="rgb(92.741394%, 22.73407%, 0%)" offset="0.40625"/><stop stop-opacity="1" stop-color="rgb(92.599487%, 22.436523%, 0%)" offset="0.414062"/><stop stop-opacity="1" stop-color="rgb(92.459106%, 22.138977%, 0%)" offset="0.421875"/><stop stop-opacity="1" stop-color="rgb(92.3172%, 21.841431%, 0%)" offset="0.429688"/><stop stop-opacity="1" stop-color="rgb(92.176819%, 21.54541%, 0%)" offset="0.4375"/><stop stop-opacity="1" stop-color="rgb(92.036438%, 21.247864%, 0%)" offset="0.445313"/><stop stop-opacity="1" stop-color="rgb(91.894531%, 20.950317%, 0%)" offset="0.453125"/><stop stop-opacity="1" stop-color="rgb(91.75415%, 20.652771%, 0%)" offset="0.460938"/><stop stop-opacity="1" stop-color="rgb(91.61377%, 20.35675%, 0%)" offset="0.46875"/><stop stop-opacity="1" stop-color="rgb(91.471863%, 20.059204%, 0%)" offset="0.476563"/><stop stop-opacity="1" stop-color="rgb(91.331482%, 19.761658%, 0%)" offset="0.484375"/><stop stop-opacity="1" stop-color="rgb(91.191101%, 19.464111%, 0%)" offset="0.492188"/><stop stop-opacity="1" stop-color="rgb(91.049194%, 19.166565%, 0%)" offset="0.5"/><stop stop-opacity="1" stop-color="rgb(90.979004%, 19.018555%, 0%)" offset="0.5"/><stop stop-opacity="1" stop-color="rgb(90.908813%, 18.870544%, 0%)" offset="0.5"/><stop stop-opacity="1" stop-color="rgb(90.838623%, 18.722534%, 0%)" offset="0.507812"/><stop stop-opacity="1" stop-color="rgb(90.766907%, 18.572998%, 0%)" offset="0.515625"/><stop stop-opacity="1" stop-color="rgb(90.626526%, 18.275452%, 0%)" offset="0.523438"/><stop stop-opacity="1" stop-color="rgb(90.486145%, 17.977905%, 0%)" offset="0.53125"/><stop stop-opacity="1" stop-color="rgb(90.344238%, 17.681885%, 0%)" offset="0.539062"/><stop stop-opacity="1" stop-color="rgb(90.203857%, 17.384338%, 0%)" offset="0.546875"/><stop stop-opacity="1" stop-color="rgb(90.063477%, 17.086792%, 0%)" offset="0.554688"/><stop stop-opacity="1" stop-color="rgb(89.92157%, 16.789246%, 0%)" offset="0.5625"/><stop stop-opacity="1" stop-color="rgb(89.781189%, 16.493225%, 0%)" offset="0.570312"/><stop stop-opacity="1" stop-color="rgb(89.640808%, 16.195679%, 0%)" offset="0.578125"/><stop stop-opacity="1" stop-color="rgb(89.498901%, 15.898132%, 0%)" offset="0.585938"/><stop stop-opacity="1" stop-color="rgb(89.358521%, 15.600586%, 0%)" offset="0.59375"/><stop stop-opacity="1" stop-color="rgb(89.216614%, 15.304565%, 0%)" offset="0.601562"/><stop stop-opacity="1" stop-color="rgb(89.076233%, 15.007019%, 0%)" offset="0.609375"/><stop stop-opacity="1" stop-color="rgb(88.935852%, 14.709473%, 0%)" offset="0.617188"/><stop stop-opacity="1" stop-color="rgb(88.793945%, 14.411926%, 0%)" offset="0.625"/><stop stop-opacity="1" stop-color="rgb(88.653564%, 14.11438%, 0%)" offset="0.632812"/><stop stop-opacity="1" stop-color="rgb(88.513184%, 13.818359%, 0%)" offset="0.640625"/><stop stop-opacity="1" stop-color="rgb(88.371277%, 13.520813%, 0%)" offset="0.648438"/><stop stop-opacity="1" stop-color="rgb(88.230896%, 13.223267%, 0%)" offset="0.65625"/><stop stop-opacity="1" stop-color="rgb(88.088989%, 12.92572%, 0%)" offset="0.664062"/><stop stop-opacity="1" stop-color="rgb(87.948608%, 12.6297%, 0%)" offset="0.671875"/><stop stop-opacity="1" stop-color="rgb(87.808228%, 12.332153%, 0%)" offset="0.679688"/><stop stop-opacity="1" stop-color="rgb(87.666321%, 12.034607%, 0%)" offset="0.6875"/><stop stop-opacity="1" stop-color="rgb(87.52594%, 11.737061%, 0%)" offset="0.695312"/><stop stop-opacity="1" stop-color="rgb(87.385559%, 11.44104%, 0%)" offset="0.703125"/><stop stop-opacity="1" stop-color="rgb(87.243652%, 11.143494%, 0%)" offset="0.710938"/><stop stop-opacity="1" stop-color="rgb(87.103271%, 10.845947%, 0%)" offset="0.71875"/><stop stop-opacity="1" stop-color="rgb(86.962891%, 10.548401%, 0%)" offset="0.726562"/><stop stop-opacity="1" stop-color="rgb(86.820984%, 10.25238%, 0%)" offset="0.734375"/><stop stop-opacity="1" stop-color="rgb(86.680603%, 9.954834%, 0%)" offset="0.742188"/><stop stop-opacity="1" stop-color="rgb(86.538696%, 9.657288%, 0%)" offset="0.75"/><stop stop-opacity="1" stop-color="rgb(86.398315%, 9.359741%, 0%)" offset="0.757812"/><stop stop-opacity="1" stop-color="rgb(86.257935%, 9.062195%, 0%)" offset="0.765625"/><stop stop-opacity="1" stop-color="rgb(86.116028%, 8.766174%, 0%)" offset="0.773438"/><stop stop-opacity="1" stop-color="rgb(85.975647%, 8.468628%, 0%)" offset="0.78125"/><stop stop-opacity="1" stop-color="rgb(85.835266%, 8.171082%, 0%)" offset="0.789062"/><stop stop-opacity="1" stop-color="rgb(85.693359%, 7.873535%, 0%)" offset="0.796875"/><stop stop-opacity="1" stop-color="rgb(85.552979%, 7.577515%, 0%)" offset="0.804687"/><stop stop-opacity="1" stop-color="rgb(85.412598%, 7.279968%, 0%)" offset="0.8125"/><stop stop-opacity="1" stop-color="rgb(85.270691%, 6.982422%, 0%)" offset="0.820312"/><stop stop-opacity="1" stop-color="rgb(85.13031%, 6.684875%, 0%)" offset="0.828125"/><stop stop-opacity="1" stop-color="rgb(84.988403%, 6.388855%, 0%)" offset="0.835937"/><stop stop-opacity="1" stop-color="rgb(84.848022%, 6.091309%, 0%)" offset="0.84375"/><stop stop-opacity="1" stop-color="rgb(84.707642%, 5.793762%, 0%)" offset="0.851562"/><stop stop-opacity="1" stop-color="rgb(84.565735%, 5.496216%, 0%)" offset="0.859375"/><stop stop-opacity="1" stop-color="rgb(84.425354%, 5.200195%, 0%)" offset="0.867187"/><stop stop-opacity="1" stop-color="rgb(84.284973%, 4.902649%, 0%)" offset="0.875"/><stop stop-opacity="1" stop-color="rgb(84.143066%, 4.605103%, 0%)" offset="0.882812"/><stop stop-opacity="1" stop-color="rgb(84.002686%, 4.307556%, 0%)" offset="0.890625"/><stop stop-opacity="1" stop-color="rgb(83.862305%, 4.01001%, 0%)" offset="0.898437"/><stop stop-opacity="1" stop-color="rgb(83.720398%, 3.713989%, 0%)" offset="0.90625"/><stop stop-opacity="1" stop-color="rgb(83.580017%, 3.416443%, 0%)" offset="0.914062"/><stop stop-opacity="1" stop-color="rgb(83.43811%, 3.118896%, 0%)" offset="0.921875"/><stop stop-opacity="1" stop-color="rgb(83.297729%, 2.82135%, 0%)" offset="0.929687"/><stop stop-opacity="1" stop-color="rgb(83.157349%, 2.52533%, 0%)" offset="0.9375"/><stop stop-opacity="1" stop-color="rgb(83.015442%, 2.227783%, 0%)" offset="0.945312"/><stop stop-opacity="1" stop-color="rgb(82.875061%, 1.930237%, 0%)" offset="0.953125"/><stop stop-opacity="1" stop-color="rgb(82.73468%, 1.63269%, 0%)" offset="0.960937"/><stop stop-opacity="1" stop-color="rgb(82.592773%, 1.33667%, 0%)" offset="0.96875"/><stop stop-opacity="1" stop-color="rgb(82.452393%, 1.039124%, 0%)" offset="0.976562"/><stop stop-opacity="1" stop-color="rgb(82.312012%, 0.741577%, 0%)" offset="0.984375"/><stop stop-opacity="1" stop-color="rgb(82.170105%, 0.444031%, 0%)" offset="0.992187"/><stop stop-opacity="1" stop-color="rgb(82.029724%, 0.14801%, 0%)" offset="1"/></linearGradient><clipPath id="76ba4d5e57"><rect x="0" width="327" y="0" height="328"/></clipPath><clipPath id="19d48eda53"><path d="M 95 122.167969 L 232.546875 122.167969 L 232.546875 303.589844 L 95 303.589844 Z M 95 122.167969 " clip-rule="nonzero"/></clipPath><clipPath id="fdcade1860"><path d="M 1077.457031 87.234375 L 1112.691406 87.234375 L 1112.691406 122.46875 L 1077.457031 122.46875 Z M 1077.457031 87.234375 " clip-rule="nonzero"/></clipPath></defs><g clip-path="url(#a72aab91a0)"><g clip-path="url(#151988e85f)"><g transform="matrix(1, 0, 0, 1, 0, 49)"><g clip-path="url(#76ba4d5e57)"><g clip-path="url(#9961e6c1a0)"><g clip-path="url(#5ea8b7b86f)"><path fill="url(#ce87de8cba)" d="M 0 0.683594 L 0 327.097656 L 326.414062 327.097656 L 326.414062 0.683594 Z M 0 0.683594 " fill-rule="nonzero"/></g></g></g></g></g></g><g clip-path="url(#19d48eda53)"><path fill="#000000" d="M 95.609375 259.84375 L 95.609375 122.167969 L 140.285156 122.167969 L 140.574219 167.683594 L 186.738281 167.972656 L 209.585938 190.875 L 232.4375 213.777344 L 232.296875 259.421875 L 232.152344 305.066406 L 186.660156 305.207031 L 141.164062 305.351562 Z M 187.621094 237.757812 C 187.703125 225.617188 187.636719 215.128906 187.472656 214.445312 L 187.167969 213.203125 L 140.871094 213.203125 L 140.566406 214.445312 C 140.402344 215.128906 140.335938 225.617188 140.421875 237.757812 L 140.574219 259.824219 L 187.464844 259.824219 Z M 187.621094 237.757812 " fill-opacity="1" fill-rule="evenodd"/></g><g clip-path="url(#fdcade1860)"><path fill="#000000" d="M 1095.074219 87.234375 C 1085.363281 87.234375 1077.457031 95.140625 1077.457031 104.851562 C 1077.457031 114.558594 1085.363281 122.46875 1095.074219 122.46875 C 1104.78125 122.46875 1112.691406 114.558594 1112.691406 104.851562 C 1112.691406 95.140625 1104.78125 87.234375 1095.074219 87.234375 Z M 1095.074219 90.757812 C 1102.878906 90.757812 1109.167969 97.046875 1109.167969 104.851562 C 1109.167969 112.65625 1102.878906 118.945312 1095.074219 118.945312 C 1087.269531 118.945312 1080.980469 112.65625 1080.980469 104.851562 C 1080.980469 97.046875 1087.269531 90.757812 1095.074219 90.757812 Z M 1095.074219 96.050781 C 1092.816406 96.050781 1090.558594 96.910156 1088.84375 98.621094 C 1085.421875 102.046875 1085.421875 107.652344 1088.84375 111.078125 C 1092.269531 114.503906 1097.875 114.503906 1101.300781 111.078125 L 1098.808594 108.585938 C 1096.730469 110.664062 1093.414062 110.664062 1091.335938 108.585938 C 1089.257812 106.507812 1089.257812 103.191406 1091.335938 101.113281 C 1093.414062 99.035156 1096.730469 99.035156 1098.808594 101.113281 L 1101.300781 98.621094 C 1099.589844 96.910156 1097.332031 96.050781 1095.074219 96.050781 Z M 1095.074219 96.050781 " fill-opacity="1" fill-rule="nonzero"/></g><g fill="#000000" fill-opacity="1"><g transform="translate(437.491707, 184.778654)"><g><path d="M 39.015625 -87.046875 L 6.25 -87.046875 L 6.25 -97.171875 L 82.734375 -97.171875 L 82.734375 -87.046875 L 49.984375 -87.046875 L 49.984375 0 L 39.015625 0 Z M 39.015625 -87.046875 "/></g></g></g><g fill="#000000" fill-opacity="1"><g transform="translate(523.011151, 184.778654)"><g><path d="M 13.75 -97.171875 L 24.71875 -97.171875 L 24.71875 -54 L 80.796875 -54 L 80.796875 -97.171875 L 91.765625 -97.171875 L 91.765625 0 L 80.796875 0 L 80.796875 -43.734375 L 24.71875 -43.734375 L 24.71875 0 L 13.75 0 Z M 13.75 -97.171875 "/></g></g></g><g fill="#000000" fill-opacity="1"><g transform="translate(625.051406, 184.778654)"><g><path d="M 13.75 -97.171875 L 83.984375 -97.171875 L 83.984375 -87.1875 L 24.71875 -87.1875 L 24.71875 -54 L 77.75 -54 L 77.75 -44.015625 L 24.71875 -44.015625 L 24.71875 -10 L 84.6875 -10 L 84.6875 0 L 13.75 0 Z M 13.75 -97.171875 "/></g></g></g><g fill="#000000" fill-opacity="1"><g transform="translate(714.596929, 184.778654)"><g/></g></g><g fill="#000000" fill-opacity="1"><g transform="translate(752.776548, 184.778654)"><g><path d="M 11.65625 -97.171875 L 56.78125 -97.171875 C 67.976562 -97.171875 76.445312 -94.304688 82.1875 -88.578125 C 86.625 -84.128906 88.84375 -78.617188 88.84375 -72.046875 L 88.84375 -71.78125 C 88.84375 -69 88.492188 -66.539062 87.796875 -64.40625 C 87.109375 -62.28125 86.1875 -60.363281 85.03125 -58.65625 C 83.875 -56.945312 82.53125 -55.441406 81 -54.140625 C 79.476562 -52.847656 77.835938 -51.738281 76.078125 -50.8125 C 81.722656 -48.6875 86.164062 -45.796875 89.40625 -42.140625 C 92.644531 -38.484375 94.265625 -33.414062 94.265625 -26.9375 L 94.265625 -26.65625 C 94.265625 -22.207031 93.40625 -18.316406 91.6875 -14.984375 C 89.976562 -11.660156 87.523438 -8.882812 84.328125 -6.65625 C 81.140625 -4.4375 77.300781 -2.769531 72.8125 -1.65625 C 68.320312 -0.550781 63.347656 0 57.890625 0 L 11.65625 0 Z M 67.609375 -68.4375 C 67.609375 -71.675781 66.40625 -74.148438 64 -75.859375 C 61.59375 -77.578125 58.125 -78.4375 53.59375 -78.4375 L 32.484375 -78.4375 L 32.484375 -57.890625 L 52.203125 -57.890625 C 56.921875 -57.890625 60.664062 -58.695312 63.4375 -60.3125 C 66.21875 -61.9375 67.609375 -64.554688 67.609375 -68.171875 Z M 73.03125 -29.578125 C 73.03125 -32.804688 71.78125 -35.367188 69.28125 -37.265625 C 66.78125 -39.171875 62.753906 -40.125 57.203125 -40.125 L 32.484375 -40.125 L 32.484375 -18.734375 L 57.890625 -18.734375 C 62.609375 -18.734375 66.3125 -19.585938 69 -21.296875 C 71.6875 -23.015625 73.03125 -25.679688 73.03125 -29.296875 Z M 73.03125 -29.578125 "/></g></g></g><g fill="#000000" fill-opacity="1"><g transform="translate(849.541253, 184.778654)"><g><path d="M 58.859375 1.671875 C 51.367188 1.671875 44.472656 0.351562 38.171875 -2.28125 C 31.878906 -4.925781 26.441406 -8.492188 21.859375 -12.984375 C 17.285156 -17.472656 13.722656 -22.75 11.171875 -28.8125 C 8.628906 -34.875 7.359375 -41.375 7.359375 -48.3125 L 7.359375 -48.59375 C 7.359375 -55.53125 8.648438 -62.03125 11.234375 -68.09375 C 13.828125 -74.15625 17.414062 -79.476562 22 -84.0625 C 26.582031 -88.644531 32.039062 -92.253906 38.375 -94.890625 C 44.71875 -97.523438 51.640625 -98.84375 59.140625 -98.84375 C 66.640625 -98.84375 73.535156 -97.523438 79.828125 -94.890625 C 86.117188 -92.253906 91.554688 -88.691406 96.140625 -84.203125 C 100.722656 -79.710938 104.285156 -74.4375 106.828125 -68.375 C 109.367188 -62.3125 110.640625 -55.8125 110.640625 -48.875 L 110.640625 -48.59375 C 110.640625 -41.644531 109.34375 -35.140625 106.75 -29.078125 C 104.164062 -23.015625 100.582031 -17.691406 96 -13.109375 C 91.414062 -8.535156 85.953125 -4.925781 79.609375 -2.28125 C 73.273438 0.351562 66.359375 1.671875 58.859375 1.671875 Z M 59.140625 -18.046875 C 63.398438 -18.046875 67.332031 -18.832031 70.9375 -20.40625 C 74.550781 -21.976562 77.628906 -24.148438 80.171875 -26.921875 C 82.710938 -29.703125 84.703125 -32.921875 86.140625 -36.578125 C 87.578125 -40.234375 88.296875 -44.144531 88.296875 -48.3125 L 88.296875 -48.59375 C 88.296875 -52.757812 87.578125 -56.691406 86.140625 -60.390625 C 84.703125 -64.085938 82.664062 -67.320312 80.03125 -70.09375 C 77.394531 -72.875 74.269531 -75.070312 70.65625 -76.6875 C 67.050781 -78.3125 63.117188 -79.125 58.859375 -79.125 C 54.515625 -79.125 50.554688 -78.335938 46.984375 -76.765625 C 43.421875 -75.191406 40.367188 -73.015625 37.828125 -70.234375 C 35.285156 -67.460938 33.296875 -64.25 31.859375 -60.59375 C 30.421875 -56.9375 29.703125 -53.03125 29.703125 -48.875 L 29.703125 -48.59375 C 29.703125 -44.425781 30.421875 -40.488281 31.859375 -36.78125 C 33.296875 -33.082031 35.332031 -29.84375 37.96875 -27.0625 C 40.601562 -24.289062 43.703125 -22.09375 47.265625 -20.46875 C 50.828125 -18.851562 54.785156 -18.046875 59.140625 -18.046875 Z M 59.140625 -18.046875 "/></g></g></g><g fill="#000000" fill-opacity="1"><g transform="translate(959.911282, 184.778654)"><g><path d="M 34.296875 -77.46875 L 4.71875 -77.46875 L 4.71875 -97.171875 L 85.234375 -97.171875 L 85.234375 -77.46875 L 55.671875 -77.46875 L 55.671875 0 L 34.296875 0 Z M 34.296875 -77.46875 "/></g></g></g><g fill="#000000" fill-opacity="1"><g transform="translate(437.491707, 339.211532)"><g><path d="M 13.75 -97.171875 L 83.578125 -97.171875 L 83.578125 -87.046875 L 24.71875 -87.046875 L 24.71875 -52.34375 L 77.328125 -52.34375 L 77.328125 -42.34375 L 24.71875 -42.34375 L 24.71875 0 L 13.75 0 Z M 13.75 -97.171875 "/></g></g></g><g fill="#000000" fill-opacity="1"><g transform="translate(513.987035, 339.211532)"><g><path d="M 49.703125 -97.875 L 59.96875 -97.875 L 104.265625 0 L 92.453125 0 L 81.078125 -25.6875 L 28.1875 -25.6875 L 16.65625 0 L 5.421875 0 Z M 76.765625 -35.546875 L 54.703125 -85.109375 L 32.484375 -35.546875 Z M 76.765625 -35.546875 "/></g></g></g><g fill="#000000" fill-opacity="1"><g transform="translate(614.500088, 339.211532)"><g><path d="M 58.171875 1.671875 C 51.140625 1.671875 44.660156 0.375 38.734375 -2.21875 C 32.804688 -4.8125 27.664062 -8.351562 23.3125 -12.84375 C 18.96875 -17.332031 15.566406 -22.628906 13.109375 -28.734375 C 10.660156 -34.847656 9.4375 -41.375 9.4375 -48.3125 L 9.4375 -48.59375 C 9.4375 -55.4375 10.660156 -61.910156 13.109375 -68.015625 C 15.566406 -74.128906 18.96875 -79.476562 23.3125 -84.0625 C 27.664062 -88.644531 32.847656 -92.253906 38.859375 -94.890625 C 44.878906 -97.523438 51.453125 -98.84375 58.578125 -98.84375 C 63.023438 -98.84375 67.03125 -98.472656 70.59375 -97.734375 C 74.15625 -96.992188 77.460938 -95.953125 80.515625 -94.609375 C 83.578125 -93.265625 86.398438 -91.644531 88.984375 -89.75 C 91.578125 -87.851562 94.078125 -85.75 96.484375 -83.4375 L 88.984375 -75.390625 C 84.816406 -79.273438 80.347656 -82.46875 75.578125 -84.96875 C 70.816406 -87.46875 65.109375 -88.71875 58.453125 -88.71875 C 53.078125 -88.71875 48.097656 -87.695312 43.515625 -85.65625 C 38.941406 -83.625 34.960938 -80.800781 31.578125 -77.1875 C 28.203125 -73.582031 25.566406 -69.347656 23.671875 -64.484375 C 21.773438 -59.628906 20.828125 -54.425781 20.828125 -48.875 L 20.828125 -48.59375 C 20.828125 -42.945312 21.773438 -37.691406 23.671875 -32.828125 C 25.566406 -27.972656 28.203125 -23.738281 31.578125 -20.125 C 34.960938 -16.519531 38.941406 -13.675781 43.515625 -11.59375 C 48.097656 -9.507812 53.078125 -8.46875 58.453125 -8.46875 C 65.109375 -8.46875 70.84375 -9.691406 75.65625 -12.140625 C 80.46875 -14.597656 85.191406 -18.046875 89.828125 -22.484375 L 97.046875 -15.40625 C 94.546875 -12.8125 91.929688 -10.472656 89.203125 -8.390625 C 86.472656 -6.316406 83.53125 -4.535156 80.375 -3.046875 C 77.226562 -1.566406 73.847656 -0.410156 70.234375 0.421875 C 66.628906 1.253906 62.609375 1.671875 58.171875 1.671875 Z M 58.171875 1.671875 "/></g></g></g><g fill="#000000" fill-opacity="1"><g transform="translate(714.041399, 339.211532)"><g><path d="M 39.015625 -87.046875 L 6.25 -87.046875 L 6.25 -97.171875 L 82.734375 -97.171875 L 82.734375 -87.046875 L 49.984375 -87.046875 L 49.984375 0 L 39.015625 0 Z M 39.015625 -87.046875 "/></g></g></g><g fill="#000000" fill-opacity="1"><g transform="translate(793.313402, 339.211532)"><g><path d="M 58.859375 1.671875 C 51.453125 1.671875 44.71875 0.328125 38.65625 -2.359375 C 32.601562 -5.046875 27.398438 -8.675781 23.046875 -13.25 C 18.691406 -17.832031 15.332031 -23.15625 12.96875 -29.21875 C 10.613281 -35.28125 9.4375 -41.644531 9.4375 -48.3125 L 9.4375 -48.59375 C 9.4375 -55.25 10.640625 -61.628906 13.046875 -67.734375 C 15.453125 -73.847656 18.828125 -79.195312 23.171875 -83.78125 C 27.523438 -88.363281 32.753906 -92.019531 38.859375 -94.75 C 44.972656 -97.476562 51.734375 -98.84375 59.140625 -98.84375 C 66.546875 -98.84375 73.28125 -97.5 79.34375 -94.8125 C 85.40625 -92.132812 90.609375 -88.503906 94.953125 -83.921875 C 99.304688 -79.335938 102.660156 -74.015625 105.015625 -67.953125 C 107.378906 -61.890625 108.5625 -55.53125 108.5625 -48.875 L 108.5625 -48.59375 C 108.5625 -41.925781 107.359375 -35.535156 104.953125 -29.421875 C 102.546875 -23.316406 99.164062 -17.972656 94.8125 -13.390625 C 90.46875 -8.816406 85.238281 -5.160156 79.125 -2.421875 C 73.019531 0.304688 66.265625 1.671875 58.859375 1.671875 Z M 59.140625 -8.46875 C 64.691406 -8.46875 69.800781 -9.507812 74.46875 -11.59375 C 79.144531 -13.675781 83.148438 -16.519531 86.484375 -20.125 C 89.816406 -23.738281 92.429688 -27.953125 94.328125 -32.765625 C 96.222656 -37.578125 97.171875 -42.757812 97.171875 -48.3125 L 97.171875 -48.59375 C 97.171875 -54.144531 96.222656 -59.347656 94.328125 -64.203125 C 92.429688 -69.066406 89.769531 -73.300781 86.34375 -76.90625 C 82.925781 -80.519531 78.878906 -83.390625 74.203125 -85.515625 C 69.523438 -87.648438 64.410156 -88.71875 58.859375 -88.71875 C 53.304688 -88.71875 48.191406 -87.675781 43.515625 -85.59375 C 38.847656 -83.507812 34.847656 -80.660156 31.515625 -77.046875 C 28.179688 -73.441406 25.566406 -69.234375 23.671875 -64.421875 C 21.773438 -59.609375 20.828125 -54.425781 20.828125 -48.875 L 20.828125 -48.59375 C 20.828125 -43.039062 21.773438 -37.832031 23.671875 -32.96875 C 25.566406 -28.113281 28.226562 -23.878906 31.65625 -20.265625 C 35.082031 -16.660156 39.128906 -13.789062 43.796875 -11.65625 C 48.472656 -9.53125 53.585938 -8.46875 59.140625 -8.46875 Z M 59.140625 -8.46875 "/></g></g></g><g fill="#000000" fill-opacity="1"><g transform="translate(907.848369, 339.211532)"><g><path d="M 13.75 -97.171875 L 55.53125 -97.171875 C 61.550781 -97.171875 66.894531 -96.316406 71.5625 -94.609375 C 76.238281 -92.898438 80.101562 -90.519531 83.15625 -87.46875 C 85.5625 -85.0625 87.410156 -82.238281 88.703125 -79 C 90.003906 -75.757812 90.65625 -72.191406 90.65625 -68.296875 L 90.65625 -68.03125 C 90.65625 -63.957031 90.003906 -60.320312 88.703125 -57.125 C 87.410156 -53.9375 85.582031 -51.160156 83.21875 -48.796875 C 80.863281 -46.441406 78.066406 -44.5 74.828125 -42.96875 C 71.585938 -41.4375 68.070312 -40.347656 64.28125 -39.703125 L 94.125 0 L 80.65625 0 L 52.484375 -37.765625 L 24.71875 -37.765625 L 24.71875 0 L 13.75 0 Z M 54.5625 -47.625 C 58.164062 -47.625 61.492188 -48.082031 64.546875 -49 C 67.609375 -49.925781 70.25 -51.242188 72.46875 -52.953125 C 74.6875 -54.671875 76.421875 -56.753906 77.671875 -59.203125 C 78.921875 -61.660156 79.546875 -64.460938 79.546875 -67.609375 L 79.546875 -67.890625 C 79.546875 -73.898438 77.367188 -78.59375 73.015625 -81.96875 C 68.671875 -85.351562 62.566406 -87.046875 54.703125 -87.046875 L 24.71875 -87.046875 L 24.71875 -47.625 Z M 54.5625 -47.625 "/></g></g></g><g fill="#000000" fill-opacity="1"><g transform="translate(1001.281133, 339.211532)"><g><path d="M 44.140625 -38.453125 L 3.75 -97.171875 L 17.078125 -97.171875 L 49.84375 -48.59375 L 82.875 -97.171875 L 95.65625 -97.171875 L 55.25 -38.59375 L 55.25 0 L 44.140625 0 Z M 44.140625 -38.453125 "/></g></g></g></svg>